<?xml version="1.0" standalone="no"?>
<!DOCTYPE svg PUBLIC "-//W3C//DTD SVG 20010904//EN"
 "http://www.w3.org/TR/2001/REC-SVG-20010904/DTD/svg10.dtd">
<svg version="1.0" xmlns="http://www.w3.org/2000/svg"
 width="900.000000pt" height="540.000000pt" viewBox="0 0 900.000000 540.000000"
 preserveAspectRatio="xMidYMid meet">

<g transform="translate(0.000000,540.000000) scale(0.100000,-0.100000)"
fill="#000000" stroke="none">
<path d="M7970 5389 c-135 -5 -519 -13 -855 -18 -335 -5 -646 -15 -690 -21
-259 -35 -460 -76 -518 -105 -16 -8 -37 -15 -46 -15 -9 0 -29 -8 -46 -18 -16
-10 -46 -24 -65 -32 -76 -30 -170 -117 -200 -185 -14 -33 -18 -71 -19 -196 -1
-140 1 -160 21 -200 36 -75 114 -165 212 -243 50 -40 61 -82 47 -186 -6 -46
-11 -122 -11 -169 -1 -47 -7 -156 -15 -241 -9 -85 -18 -207 -21 -270 -6 -111
-16 -155 -34 -148 -16 6 -160 147 -160 157 0 6 -17 29 -38 51 -107 116 -94
-85 15 -255 39 -60 214 -238 263 -268 19 -11 39 -27 43 -34 4 -7 13 -13 19
-13 6 0 18 -8 27 -18 20 -22 127 -92 141 -92 5 0 10 -3 10 -8 0 -4 17 -16 38
-27 20 -10 43 -24 51 -30 54 -40 564 -296 671 -336 19 -7 50 -21 68 -31 18
-10 41 -18 51 -18 10 0 24 -7 31 -15 7 -8 30 -20 51 -27 22 -6 39 -14 39 -18
0 -12 -49 -27 -130 -41 -41 -7 -85 -16 -97 -20 -12 -5 -109 -24 -215 -43 -351
-65 -461 -84 -528 -91 -72 -9 -104 -13 -165 -25 -27 -5 -113 -17 -190 -25 -77
-8 -165 -20 -195 -25 -30 -5 -118 -14 -195 -20 -77 -6 -169 -15 -205 -20 -107
-15 -563 -43 -985 -61 -115 -5 -450 -12 -743 -15 -447 -6 -537 -5 -559 7 -21
11 -27 11 -30 2 -6 -16 -45 -17 -60 -2 -8 8 -17 7 -34 -1 -15 -9 -44 -10 -88
-6 -36 4 -131 9 -211 12 -80 3 -194 10 -255 16 -60 6 -176 12 -257 15 l-148 4
-1 47 c-1 26 0 56 1 67 5 47 57 75 200 105 142 30 341 93 373 118 7 5 29 15
49 21 20 7 42 19 48 27 7 7 19 14 27 14 15 0 119 68 146 95 9 8 18 15 21 15 9
0 76 64 76 73 0 4 9 18 20 30 11 12 26 38 32 59 10 36 9 40 -15 66 -36 38 -34
64 9 111 32 37 35 44 29 83 -4 24 -8 84 -9 133 -2 50 -9 106 -15 127 -14 43
-108 141 -160 165 -20 10 -42 23 -49 30 -7 7 -25 16 -40 19 -15 3 -38 11 -52
19 -64 34 -283 80 -455 95 -71 6 -173 15 -225 20 -58 5 -132 5 -190 -1 -202
-20 -347 -41 -402 -60 -32 -10 -65 -19 -73 -19 -9 0 -49 -10 -88 -23 -40 -13
-97 -29 -127 -37 -30 -7 -59 -16 -65 -20 -5 -4 -32 -15 -60 -23 -27 -8 -70
-24 -95 -35 -25 -11 -60 -26 -78 -33 -17 -8 -32 -17 -32 -21 0 -5 -7 -8 -16
-8 -14 0 -142 -66 -154 -79 -3 -3 -32 -25 -65 -47 -94 -64 -215 -176 -215
-198 0 -3 -16 -29 -35 -57 -19 -28 -35 -59 -35 -68 0 -9 -4 -21 -9 -26 -27
-31 -41 -196 -19 -238 6 -12 15 -30 19 -39 5 -10 13 -50 19 -90 19 -129 43
-222 66 -254 67 -92 215 -214 259 -214 7 0 17 -5 21 -11 12 -20 137 -70 259
-105 121 -34 154 -51 187 -95 22 -29 58 -182 58 -243 0 -23 7 -73 16 -111 15
-69 23 -123 43 -283 6 -45 13 -87 17 -93 3 -6 10 -41 15 -77 24 -178 29 -212
44 -282 24 -118 21 -142 -18 -163 -31 -17 -34 -17 -110 7 -91 30 -232 96 -301
143 -26 18 -57 33 -67 33 -10 0 -25 12 -33 28 -8 15 -22 34 -32 43 -23 20 -81
32 -89 18 -10 -15 24 -141 44 -164 9 -11 23 -32 30 -47 24 -47 141 -159 216
-205 97 -61 199 -104 320 -138 44 -12 87 -24 95 -28 29 -10 66 -18 125 -27 33
-4 92 -16 130 -25 68 -16 105 -22 250 -45 39 -6 97 -16 130 -21 92 -15 361
-47 585 -69 52 -5 493 -10 980 -10 912 0 1278 11 1565 45 72 8 191 21 265 29
190 21 359 45 475 68 55 11 134 24 175 28 41 5 93 14 115 20 22 6 87 20 145
30 57 11 111 22 120 26 33 13 122 34 146 34 14 0 33 4 42 9 9 5 31 12 47 15
83 16 128 27 181 44 33 10 109 34 169 52 185 55 363 116 447 153 18 8 53 23
78 33 25 10 47 21 50 24 3 3 23 11 45 19 22 8 42 17 45 20 3 4 45 27 93 51
114 58 143 75 170 94 12 9 34 24 48 34 137 88 251 192 307 278 28 44 82 168
82 190 l0 24 -54 -27 c-30 -16 -55 -33 -55 -39 -1 -6 -19 -19 -41 -29 -23 -10
-44 -23 -48 -29 -8 -12 -19 -19 -100 -67 -30 -18 -56 -38 -59 -45 -3 -8 -12
-14 -21 -14 -8 0 -30 -11 -48 -25 -18 -14 -43 -30 -56 -35 -13 -6 -36 -19 -53
-29 -16 -11 -36 -20 -43 -20 -8 -1 -26 -9 -40 -19 -15 -10 -45 -24 -67 -31
-22 -7 -47 -19 -55 -26 -22 -17 -120 -55 -144 -55 -11 0 -47 -13 -80 -29 -32
-16 -82 -35 -110 -41 -28 -6 -60 -15 -71 -20 -129 -55 -252 -84 -292 -69 -25
9 -26 11 -20 87 4 42 13 127 22 187 9 61 20 148 26 195 16 134 28 220 38 290
5 36 12 108 16 160 4 52 11 106 15 120 5 14 12 54 15 89 9 105 52 158 145 181
30 7 62 16 70 20 8 4 60 19 115 33 55 14 114 30 130 35 17 6 64 21 105 33 115
34 210 66 334 114 98 37 371 171 386 190 7 8 16 15 21 15 19 0 133 85 191 142
32 32 63 58 69 58 17 0 44 97 73 265 7 44 21 106 30 138 17 63 21 177 7 205
-5 9 -20 39 -32 65 -28 57 -127 163 -220 236 -37 28 -69 51 -72 51 -3 0 -34
18 -68 40 -35 22 -84 50 -109 63 -25 13 -61 33 -80 44 -19 10 -62 30 -95 43
-33 13 -67 29 -76 37 -8 7 -21 13 -27 13 -7 0 -20 4 -30 9 -9 5 -30 14 -47 21
-16 7 -38 16 -47 21 -10 5 -26 9 -36 9 -10 0 -22 4 -28 9 -9 9 -33 18 -314
117 -132 47 -249 84 -265 84 -3 0 -5 4 -5 9 0 8 157 14 695 26 322 8 679 24
765 35 41 5 116 10 165 11 66 1 459 25 472 29 1 0 1 41 1 91 l-1 92 -171 -7
c-276 -11 -377 -17 -446 -28 -92 -14 -225 -22 -253 -14 -30 7 -45 42 -36 81 4
17 7 53 8 81 0 28 7 69 15 90 7 22 19 77 25 124 7 47 23 146 36 220 13 74 27
151 31 172 11 66 31 75 184 81 74 3 242 11 373 18 l237 13 0 93 0 93 -392 -2
c-216 0 -503 -5 -638 -9z m857 -75 c3 -24 -22 -58 -36 -49 -15 9 -14 48 1 63
16 16 32 10 35 -14z m143 8 c0 -29 -25 -56 -44 -49 -13 5 -15 13 -10 29 12 38
54 54 54 20z m-292 -33 c-4 -33 -38 -39 -38 -7 0 28 20 52 33 39 5 -5 7 -19 5
-32z m-128 8 c0 -28 -17 -47 -42 -47 -11 0 -18 7 -18 19 0 35 12 51 36 51 18
0 24 -5 24 -23z m-450 -27 c0 -36 -2 -40 -25 -40 -21 0 -25 5 -25 30 0 26 19
49 43 50 4 0 7 -18 7 -40z m150 12 c0 -30 -16 -52 -37 -52 -16 0 -17 52 -1 68
21 21 38 14 38 -16z m150 19 c0 -24 -21 -61 -35 -61 -11 0 -15 10 -15 35 0 31
3 35 25 35 14 0 25 -4 25 -9z m-1511 -25 c16 -19 -6 -66 -31 -66 -24 0 -31 20
-19 53 11 30 32 35 50 13z m150 0 c17 -20 -3 -66 -29 -66 -15 0 -20 7 -20 28
0 26 15 52 31 52 4 0 12 -6 18 -14z m161 -20 c0 -26 -5 -36 -20 -41 -40 -13
-54 23 -23 57 26 29 43 22 43 -16z m148 -3 c-2 -31 -7 -39 -25 -41 -20 -3 -23
1 -23 31 0 39 6 47 32 47 16 0 19 -6 16 -37z m158 23 c8 -22 -14 -56 -36 -56
-20 0 -26 23 -14 54 8 20 43 21 50 2z m150 -2 c-3 -9 -6 -24 -6 -35 0 -12 -7
-19 -19 -19 -26 0 -34 15 -27 46 5 18 13 24 32 24 20 0 25 -4 20 -16z m144
-14 c0 -25 -4 -30 -25 -30 -15 0 -25 6 -25 14 0 28 12 46 31 46 14 0 19 -7 19
-30z m156 14 c-3 -9 -6 -22 -6 -30 0 -8 -10 -14 -25 -14 -21 0 -25 5 -25 30 0
27 3 30 31 30 24 0 30 -3 25 -16z m-1219 -10 c8 -20 -8 -48 -31 -52 -12 -3
-16 4 -16 32 0 30 4 36 20 36 11 0 23 -7 27 -16z m-290 -10 c9 -23 -14 -64
-35 -64 -15 0 -18 5 -14 28 8 47 36 68 49 36z m143 -9 c0 -26 -36 -53 -50 -38
-5 4 -6 20 -3 36 4 20 11 27 29 27 19 0 24 -5 24 -25z m-290 -40 c0 -28 -4
-35 -20 -35 -15 0 -20 7 -20 29 0 26 9 38 33 40 4 1 7 -15 7 -34z m-120 2 c0
-13 -7 -32 -15 -43 -13 -18 -14 -16 -15 24 0 31 4 42 15 42 9 0 15 -9 15 -23z
m-124 -39 c-3 -13 -6 -29 -6 -36 0 -7 -4 -10 -10 -7 -11 7 -14 48 -3 58 14 15
25 6 19 -15z m1972 -23 c21 -20 23 -26 13 -61 -5 -21 -13 -57 -16 -79 -4 -22
-11 -67 -16 -100 -6 -33 -14 -85 -18 -115 -5 -30 -20 -120 -34 -200 -14 -80
-28 -158 -30 -175 -10 -64 -26 -83 -76 -89 -74 -9 -426 -17 -829 -19 -322 -2
-374 0 -383 13 -5 9 -7 47 -4 90 18 248 28 350 37 390 5 25 13 97 18 160 11
148 16 166 48 178 16 6 242 13 552 17 289 4 559 10 600 15 89 8 108 5 138 -25z
m-2076 -11 c-4 -23 -19 -40 -28 -31 -4 3 -3 18 0 32 8 30 33 28 28 -1z m584
-40 c3 -13 -4 -70 -15 -128 -12 -57 -23 -157 -26 -222 -2 -66 -6 -132 -9 -149
-3 -16 -9 -80 -14 -141 -12 -161 -35 -188 -122 -144 -22 11 -46 20 -54 20 -8
0 -38 14 -66 30 -28 17 -54 30 -57 30 -18 0 -183 89 -261 141 -24 16 -47 29
-53 29 -5 0 -9 3 -9 8 0 4 -8 12 -19 17 -80 43 -187 141 -197 181 -9 36 2 94
24 123 18 24 71 60 122 82 14 6 43 19 65 29 49 23 192 63 300 85 44 9 98 20
120 26 67 16 218 26 243 15 12 -5 25 -20 28 -32z m-686 0 c0 -21 -4 -33 -10
-29 -17 10 -11 65 7 65 2 0 3 -16 3 -36z m-94 -652 c-13 -12 -17 8 -10 40 l9
33 3 -33 c2 -19 1 -36 -2 -40z m3101 -144 c-3 -8 -6 -5 -6 6 -1 11 2 17 5 13
3 -3 4 -12 1 -19z m-261 -36 c-20 -20 -22 -1 -4 31 11 20 12 21 16 3 2 -10 -3
-26 -12 -34z m125 21 c-8 -15 -10 -15 -11 -2 0 17 10 32 18 25 2 -3 -1 -13 -7
-23z m-238 10 c8 -14 -12 -53 -28 -53 -18 0 -20 31 -3 48 14 14 25 15 31 5z
m-130 -10 c8 -14 -12 -53 -27 -53 -20 0 -26 12 -19 38 5 21 37 31 46 15z
m-413 -32 c0 -31 -31 -49 -48 -27 -15 17 4 56 28 56 15 0 20 -7 20 -29z m136
13 c-3 -9 -6 -22 -6 -30 0 -8 -7 -14 -15 -14 -10 0 -15 10 -15 30 0 24 4 30
21 30 15 0 19 -4 15 -16z m140 0 c-3 -9 -6 -22 -6 -30 0 -19 -29 -18 -36 1 -9
24 3 45 27 45 15 0 19 -4 15 -16z m-420 -9 c7 -18 -12 -45 -32 -45 -14 0 -20
41 -7 53 11 12 33 7 39 -8z m-286 -22 c0 -20 -3 -24 -11 -16 -7 7 -9 19 -6 27
10 24 17 19 17 -11z m140 -3 c0 -20 -5 -30 -15 -30 -18 0 -30 24 -21 45 10 28
36 17 36 -15z m-1025 0 c0 -18 -16 -22 -35 -10 -13 9 -13 11 0 20 19 12 35 8
35 -10z m148 8 c6 -17 -11 -48 -26 -48 -28 1 -39 17 -28 39 13 23 47 28 54 9z
m147 -17 c0 -27 -20 -47 -34 -34 -8 8 -8 48 1 56 16 17 33 5 33 -22z m150 5
c0 -31 -22 -50 -38 -34 -13 13 -16 41 -5 51 3 4 15 7 25 7 12 0 18 -7 18 -24z
m145 14 c11 -18 -6 -50 -26 -50 -22 0 -34 22 -25 45 6 17 42 20 51 5z m145 -4
c0 -8 -3 -22 -6 -31 -9 -23 -23 0 -17 26 6 22 23 26 23 5z m-1364 -25 c14 -14
210 -114 304 -156 155 -69 178 -79 298 -126 13 -5 32 -9 42 -9 11 0 20 -4 20
-10 0 -5 9 -10 19 -10 11 0 22 -4 25 -9 3 -5 18 -11 33 -14 16 -2 51 -14 78
-25 28 -12 91 -35 140 -52 214 -74 241 -87 260 -126 14 -29 14 -45 5 -107 -6
-39 -15 -110 -20 -155 -6 -46 -12 -87 -15 -92 -3 -4 -14 -86 -25 -181 -11 -96
-25 -199 -30 -229 -5 -30 -14 -95 -20 -143 -5 -49 -14 -97 -20 -107 -15 -28
-45 -33 -84 -15 -19 9 -43 14 -54 11 -14 -5 -24 1 -36 18 -10 16 -34 31 -64
40 -27 8 -75 26 -106 40 -31 14 -63 26 -70 26 -7 0 -19 7 -26 15 -7 8 -17 15
-22 15 -9 0 -118 49 -168 75 -14 7 -50 26 -80 42 -30 16 -65 34 -77 41 -13 7
-32 17 -44 23 -84 42 -105 54 -109 60 -3 3 -23 16 -45 28 -78 41 -170 103
-200 132 -26 26 -30 37 -33 102 -2 39 1 119 7 177 7 58 16 182 21 275 8 153
20 294 36 413 4 35 9 42 28 42 12 0 26 -4 32 -9z m324 -21 c0 -10 -4 -22 -10
-25 -6 -4 -10 7 -10 25 0 18 4 29 10 25 6 -3 10 -15 10 -25z m290 -105 c8 -9
10 -28 5 -54 -6 -38 -8 -39 -31 -29 -19 9 -24 19 -24 49 0 33 8 45 31 48 4 1
12 -6 19 -14z m-150 1 c0 -2 -3 -11 -6 -20 -5 -12 -9 -13 -24 -4 -10 7 -16 16
-14 20 5 8 44 11 44 4z m330 -82 c0 -29 -20 -74 -33 -74 -6 0 -18 7 -28 16
-14 13 -16 21 -7 47 5 18 11 38 14 44 6 23 54 -7 54 -33z m144 -20 c12 -4 16
-20 16 -55 0 -48 -1 -49 -30 -49 -29 0 -30 1 -30 48 0 61 7 70 44 56z m174
-60 c20 -6 23 -12 20 -53 -3 -39 -6 -46 -26 -49 -37 -5 -53 15 -46 57 10 55
11 56 52 45z m180 -70 c19 -13 22 -22 17 -51 -7 -45 -12 -53 -34 -53 -28 0
-43 24 -36 57 17 72 17 72 53 47z m177 -68 c14 -10 17 -21 12 -51 -8 -48 -22
-63 -45 -49 -21 13 -28 79 -11 100 14 17 20 18 44 0z m173 -65 c20 -12 12
-105 -9 -109 -29 -5 -45 21 -41 71 4 48 18 59 50 38z m170 -132 c-6 -59 -10
-64 -37 -49 -16 8 -21 20 -21 53 0 52 15 71 43 56 16 -9 19 -19 15 -60z m-281
-4 c38 -13 122 -53 163 -76 8 -5 25 -14 38 -19 61 -26 155 -74 165 -84 17 -16
137 -86 148 -86 5 0 9 -4 9 -8 0 -5 17 -18 39 -30 78 -44 261 -244 261 -286 0
-8 7 -16 15 -20 32 -12 13 -45 -67 -120 -46 -42 -91 -76 -100 -76 -17 0 -98
-41 -170 -87 -21 -13 -46 -23 -57 -23 -10 0 -24 -7 -31 -15 -7 -8 -30 -20 -51
-27 -22 -6 -39 -14 -39 -18 0 -4 -31 -18 -70 -30 -38 -12 -75 -29 -81 -36 -6
-8 -19 -14 -29 -14 -15 0 -130 -34 -234 -70 -46 -15 -115 23 -144 80 -12 24
-20 52 -16 62 9 30 24 121 34 203 5 44 18 136 30 205 12 69 25 157 30 195 33
272 51 361 79 382 21 16 27 16 78 -2z m433 -20 c14 -17 4 -115 -12 -115 -5 0
-19 5 -30 11 -17 9 -19 17 -14 52 10 61 31 82 56 52z m143 -153 c-6 -51 -18
-63 -40 -41 -13 13 -4 101 11 111 23 15 36 -16 29 -70z m-6556 -64 c-2 -13 -4
-3 -4 22 0 25 2 35 4 23 2 -13 2 -33 0 -45z m253 4 c0 -28 -3 -33 -10 -22 -13
20 -13 73 0 65 6 -3 10 -23 10 -43z m3820 13 c0 -14 -4 -25 -10 -25 -11 0 -14
33 -3 43 11 11 13 8 13 -18z m2610 -15 c0 -36 -16 -80 -30 -80 -11 0 -14 78
-4 104 9 24 34 7 34 -24z m-6933 -22 c-2 -13 -4 -5 -4 17 -1 22 1 32 4 23 2
-10 2 -28 0 -40z m1157 -5 c11 -40 18 -92 12 -102 -5 -7 -14 -7 -30 0 -18 9
-25 21 -29 58 -3 25 -3 49 0 53 8 15 42 8 47 -9z m3236 -34 c0 -17 -4 -28 -10
-24 -5 3 -10 17 -10 31 0 13 5 24 10 24 6 0 10 -14 10 -31z m2634 -72 c-9 -61
-30 -57 -25 4 4 51 10 64 22 52 5 -5 6 -30 3 -56z m-5722 -2 c4 -28 3 -54 -1
-58 -13 -13 -29 15 -36 66 -7 44 -6 49 11 45 14 -2 21 -16 26 -53z m-707 25
c163 -18 187 -24 318 -78 20 -8 37 -20 37 -26 0 -11 -56 -48 -135 -90 -55 -29
-247 -86 -290 -86 -14 0 -25 -4 -25 -10 0 -5 -22 -10 -48 -10 -27 0 -64 -7
-82 -16 l-33 -17 7 -126 c4 -69 10 -142 15 -161 l7 -35 80 4 c43 1 88 8 99 14
26 14 92 26 175 34 144 12 -15 -40 -220 -72 -58 -9 -127 -20 -155 -25 -80 -15
-461 -12 -473 3 -18 22 -50 158 -72 312 -7 44 -18 102 -26 129 -22 77 -18 111
16 150 31 35 52 42 230 82 55 12 268 35 375 41 17 1 107 -6 200 -17z m3865
-31 c0 -17 -4 -28 -10 -24 -5 3 -10 17 -10 31 0 13 5 24 10 24 6 0 10 -14 10
-31z m100 -59 c0 -28 -11 -51 -21 -44 -10 6 -12 57 -3 67 11 10 24 -3 24 -23z
m-3161 -27 c-1 -45 -1 -46 -10 -18 -8 27 -4 65 7 65 2 0 4 -21 3 -47z m-276
-5 c18 -33 26 -64 30 -128 4 -47 9 -112 13 -145 l6 -60 -82 -44 c-90 -47 -103
-45 -90 14 8 37 9 39 58 113 l35 54 -6 119 c-3 65 -2 119 3 119 4 0 19 -19 33
-42z m5964 -20 c-2 -13 -4 -5 -4 17 -1 22 1 32 4 23 2 -10 2 -28 0 -40z
m-7740 -5 c-3 -15 -6 -13 -14 7 -8 18 -7 27 1 32 12 8 20 -13 13 -39z m5313
-28 c0 -47 -14 -60 -25 -24 -8 25 2 69 15 69 6 0 10 -20 10 -45z m-3289 -46
c36 -25 36 -35 -1 -78 -42 -49 -60 -37 -60 39 0 68 11 75 61 39z m3409 -28 c0
-14 -4 -32 -9 -39 -15 -24 -34 14 -27 54 6 29 10 33 22 24 8 -7 14 -24 14 -39z
m-5751 -2 c20 -58 10 -119 -20 -119 -4 0 -12 23 -19 51 -10 41 -10 56 0 75 18
32 26 30 39 -7z m489 -2 c19 -21 30 -63 49 -202 3 -22 11 -58 19 -80 14 -40
19 -125 8 -125 -3 0 -20 6 -37 14 -18 7 -52 19 -77 26 -65 18 -168 72 -217
114 l-42 36 22 41 c24 45 153 169 176 169 5 0 14 7 21 15 18 22 53 18 78 -8z
m1462 -46 c0 -35 -11 -71 -20 -71 -14 0 -22 59 -15 98 6 35 8 36 21 17 8 -10
14 -30 14 -44z m3918 -24 c2 -37 0 -47 -12 -47 -19 0 -31 41 -22 76 10 40 31
22 34 -29z m-4074 -23 c8 -22 7 -87 -2 -100 -8 -13 -46 -34 -61 -34 -7 0 -11
24 -11 60 0 55 2 61 28 74 35 19 39 19 46 0z m-1924 -64 c3 -58 2 -70 -8 -70
-10 0 -32 68 -32 98 0 20 19 35 32 23 3 -3 7 -26 8 -51z m6138 17 c3 -31 0
-37 -17 -37 -23 0 -29 13 -23 52 7 44 36 33 40 -15z m142 -65 c0 -15 -4 -33
-9 -41 -8 -12 -12 -13 -26 -1 -12 10 -15 24 -11 49 3 20 5 37 6 39 0 1 9 -2
20 -8 13 -7 20 -21 20 -38z m-4588 -30 c6 -39 0 -52 -23 -52 -15 0 -19 7 -19
33 0 19 3 37 7 40 15 15 31 5 35 -21z m-1552 -2 c10 -19 18 -56 36 -165 3 -16
9 -43 14 -60 5 -16 14 -64 20 -105 7 -41 19 -90 26 -109 18 -43 18 -41 -12
-41 -42 0 -103 39 -106 69 -2 15 -14 31 -30 41 -25 13 -28 13 -40 -2 -12 -16
-18 -14 -75 25 -53 36 -62 46 -63 73 0 51 71 179 147 265 31 34 68 38 83 9z
m6300 -44 c0 -33 -15 -49 -39 -41 -17 5 -21 14 -21 45 0 22 5 40 13 43 18 6
47 -23 47 -47z m-3992 22 c28 -28 7 -78 -34 -78 -26 0 -37 31 -24 66 10 26 38
32 58 12z m-2541 -55 c-3 -10 -5 -2 -5 17 0 19 2 27 5 18 2 -10 2 -26 0 -35z
m6683 -37 c0 -25 -5 -48 -11 -51 -17 -11 -49 26 -49 55 0 33 7 40 37 40 21 0
23 -5 23 -44z m1419 2 c-1 -47 -23 -102 -42 -106 -14 -3 -17 4 -17 35 0 38 31
103 50 103 5 0 10 -15 9 -32z m-5722 -43 c7 -21 11 -47 7 -57 -6 -21 -40 -42
-54 -33 -13 8 -13 91 1 116 15 28 30 19 46 -26z m4451 13 c14 -14 16 -84 2
-93 -17 -10 -50 15 -50 38 0 58 21 82 48 55z m1117 -75 c-10 -56 -13 -63 -30
-63 -19 0 -21 51 -3 80 22 35 40 25 33 -17z m-961 1 c18 -7 23 -79 5 -89 -10
-7 -49 21 -49 36 0 12 19 59 24 59 2 0 11 -3 20 -6z m-6378 -39 c15 -37 19
-85 7 -85 -24 1 -41 28 -57 93 -5 23 -3 27 14 27 14 0 26 -11 36 -35z m-79
-128 c188 -109 349 -157 598 -177 132 -11 150 -16 185 -57 53 -60 45 -66 -72
-58 -57 4 -125 13 -153 20 -27 7 -97 18 -155 25 -127 15 -378 63 -441 85 l-46
16 -22 112 c-13 62 -26 123 -29 136 -4 19 6 13 55 -33 32 -32 68 -63 80 -69z
m7260 87 c-6 -42 -11 -48 -32 -41 -31 12 -12 77 23 77 10 0 12 -10 9 -36z
m-5846 -1 c5 -15 9 -50 7 -77 -3 -48 -5 -51 -32 -54 -59 -7 -74 4 -78 55 -6
60 1 73 43 88 48 18 48 18 60 -12z m5209 -2 c13 -26 3 -51 -21 -51 -14 0 -19
7 -19 28 0 45 21 57 40 23z m-6339 -4 c9 -7 20 -35 24 -65 7 -51 6 -52 -18
-52 -36 0 -67 43 -67 91 0 34 3 39 23 39 12 0 29 -6 38 -13z m863 -68 c9 -56
-21 -91 -73 -87 -32 3 -36 7 -44 41 -6 26 -6 47 2 63 9 21 17 24 60 24 l48 0
7 -41z m5931 -1 c-6 -39 -34 -78 -56 -78 -15 0 -10 69 7 95 9 14 25 25 36 25
18 0 19 -5 13 -42z m-6232 8 c12 -9 17 -27 17 -59 0 -50 -8 -57 -65 -57 -38 0
-49 13 -60 72 -6 29 -3 38 12 47 25 14 74 13 96 -3z m5800 -148 c33 -16 35
-41 5 -62 -23 -16 -68 -22 -68 -8 0 19 22 82 28 82 5 0 20 -6 35 -12z m-7044
-22 c7 -8 11 -32 9 -53 -2 -30 -7 -38 -23 -38 -17 0 -20 8 -23 53 -3 54 11 69
37 38z m6851 -15 c0 -49 -18 -81 -52 -96 -42 -17 -50 -11 -42 33 10 63 14 70
42 81 44 16 52 13 52 -18z m-230 -36 c0 -2 -5 -27 -11 -55 -11 -53 -29 -70
-73 -70 -24 0 -26 3 -26 44 0 36 5 48 26 65 23 18 84 30 84 16z m-6464 -23
c18 -11 34 -48 34 -76 0 -39 -34 -34 -54 8 -27 57 -17 93 20 68z m6202 -74
c-3 -50 -5 -54 -41 -71 -45 -22 -70 -10 -62 29 3 13 7 35 10 47 5 26 36 45 73
46 22 1 23 -2 20 -51z m-5970 -38 c28 -55 28 -80 2 -80 -25 0 -57 64 -52 103
5 38 22 30 50 -23z m5712 -10 c0 -46 -3 -52 -32 -70 -61 -37 -72 -28 -68 50 2
41 13 57 43 63 56 11 57 10 57 -43z m-5469 -7 c28 -5 29 -8 29 -64 l0 -59 -30
0 c-48 0 -80 39 -80 96 0 45 1 46 26 40 15 -4 39 -10 55 -13z m5205 3 c3 -8 2
-34 -3 -58 -8 -38 -13 -44 -48 -56 -51 -17 -65 -10 -65 32 0 50 9 67 44 82 40
17 65 17 72 0z m-274 -81 c-2 -27 -8 -55 -14 -62 -12 -15 -84 -18 -92 -4 -3 5
-3 30 0 55 6 41 10 47 38 55 61 18 71 12 68 -44z m-4667 33 c10 -10 23 -104
15 -111 -11 -12 -97 3 -111 19 -7 9 -9 30 -4 60 l7 46 44 -5 c25 -2 47 -7 49
-9z m4393 -61 c2 -23 -3 -48 -13 -63 -13 -20 -24 -24 -65 -24 l-50 0 0 49 c0
60 24 82 85 78 39 -2 40 -3 43 -40z m-4137 21 c1 -7 0 -23 0 -35 -1 -11 3 -24
8 -28 6 -3 11 -15 11 -26 0 -15 -7 -19 -36 -19 -46 0 -63 21 -64 78 l0 42 40
0 c25 0 40 -5 41 -12z m3849 -55 c0 -27 -4 -54 -8 -61 -11 -16 -58 -25 -89
-17 -19 4 -23 12 -23 45 0 62 16 80 72 80 l48 0 0 -47z m-3575 15 c28 -12 38
-39 33 -84 -3 -27 -7 -29 -48 -32 -53 -4 -70 13 -70 69 0 53 32 71 85 47z
m3285 -58 l0 -60 -60 0 -60 0 0 41 c0 65 13 79 70 79 l50 0 0 -60z m-2986 34
c31 -30 16 -90 -25 -99 -47 -11 -66 1 -78 50 -6 24 -11 49 -11 54 0 18 96 13
114 -5z m2691 -41 c-1 -29 -5 -57 -10 -62 -6 -6 -29 -13 -52 -17 -52 -8 -66
12 -55 77 8 47 27 59 87 56 29 -2 30 -3 30 -54z m1819 45 c14 -6 28 -20 32
-31 9 -28 -5 -211 -22 -287 -8 -36 -19 -128 -24 -205 -5 -77 -15 -167 -22
-200 -7 -33 -11 -64 -9 -70 1 -5 -2 -53 -8 -105 -6 -52 -16 -140 -22 -195 -6
-55 -13 -110 -15 -122 -6 -29 -65 -89 -95 -96 -13 -3 -42 -10 -64 -16 -47 -13
-177 -36 -255 -46 -30 -3 -59 -10 -65 -14 -5 -5 -28 -11 -50 -14 -22 -3 -71
-13 -110 -22 -38 -9 -110 -20 -160 -26 -49 -5 -126 -16 -170 -24 -225 -41
-855 -101 -1189 -112 -85 -3 -115 -1 -142 12 -43 20 -49 34 -59 125 -8 70 -8
124 -3 313 1 39 -1 237 -6 439 l-7 366 23 36 c13 19 34 40 47 46 24 11 41 12
346 30 668 39 693 41 745 52 25 5 99 14 165 19 66 5 149 13 185 18 36 5 121
16 190 25 118 15 163 22 320 47 107 17 160 27 255 47 107 23 155 26 189 10z
m-4217 -20 c13 -17 24 -85 16 -104 -3 -8 -18 -14 -33 -14 -26 0 -29 4 -39 50
-6 28 -11 58 -11 65 0 19 53 20 67 3z m2103 -42 c0 -65 -13 -78 -72 -74 l-43
3 -3 49 c-5 71 -1 76 63 76 l55 0 0 -54z m-1802 17 c7 -10 12 -36 10 -58 l-3
-40 -55 0 -55 0 -9 47 c-12 63 3 82 58 75 22 -3 46 -14 54 -24z m1502 8 c15
-28 12 -87 -4 -100 -8 -7 -36 -11 -63 -9 l-48 3 -3 49 c-5 70 0 76 57 76 39 0
53 -4 61 -19z m-1202 -19 c7 -9 12 -35 10 -57 -3 -37 -5 -40 -37 -43 -63 -6
-79 3 -87 53 -10 69 -2 79 54 71 27 -3 52 -13 60 -24z m298 7 c20 -16 18 -95
-2 -103 -27 -10 -89 -7 -102 6 -7 7 -12 33 -12 59 0 42 3 48 23 51 34 6 78 -1
93 -13z m282 15 c21 -6 23 -11 20 -63 l-3 -56 -55 0 -55 0 0 55 c0 59 -4 54
65 69 3 0 15 -2 28 -5z m320 -6 c7 -7 12 -31 12 -55 0 -48 -17 -63 -72 -63
-45 0 -58 15 -58 65 0 52 13 65 65 65 23 0 46 -5 53 -12z m-2406 -99 c40 -5
114 -16 163 -24 50 -8 155 -19 235 -25 80 -6 161 -13 180 -16 19 -2 76 -7 125
-10 50 -2 124 -9 165 -14 76 -9 699 -22 1155 -24 247 -1 250 -1 282 -25 45
-34 53 -79 53 -318 0 -114 5 -370 12 -569 l12 -361 -22 -30 c-38 -54 -58 -56
-609 -49 -559 7 -655 10 -833 31 -69 7 -188 19 -265 25 -77 7 -160 16 -185 22
-25 5 -110 18 -190 28 -80 10 -174 28 -210 39 -61 19 -66 24 -88 68 -15 32
-27 89 -37 171 -8 68 -17 128 -21 133 -7 12 -20 100 -35 229 -5 47 -14 108
-19 135 -6 28 -15 84 -19 125 -11 92 -30 201 -37 212 -8 12 -22 199 -17 218
10 39 76 48 205 29z m6544 -655 c-6 -16 -26 -19 -26 -5 0 5 5 22 12 38 11 27
12 27 16 5 2 -13 1 -30 -2 -38z m-136 -83 c0 -27 -21 -57 -32 -45 -8 7 14 74
24 74 4 0 8 -13 8 -29z m-136 -79 c-7 -29 -31 -62 -46 -62 -16 0 -8 48 13 74
25 31 42 25 33 -12z m-171 -89 c-6 -39 -25 -63 -51 -63 -19 0 -9 56 15 82 28
31 42 23 36 -19z m-189 -86 c-14 -68 -64 -92 -64 -31 0 36 13 56 40 66 24 9
32 -2 24 -35z m-189 -64 c-8 -44 -30 -73 -57 -73 -14 0 -18 8 -18 40 0 33 5
42 28 54 46 25 55 21 47 -21z m-6535 -60 c0 -18 -5 -24 -17 -21 -13 2 -19 15
-21 43 -3 39 -3 39 17 21 12 -11 21 -30 21 -43z m6320 -16 c0 -41 -16 -63 -52
-71 -23 -5 -28 -3 -28 13 0 48 13 80 34 84 44 9 46 7 46 -26z m-6181 -53 c12
-15 21 -37 21 -50 0 -36 -29 -29 -46 11 -27 65 -13 87 25 39z m5964 -11 c-7
-47 -19 -61 -61 -69 -31 -6 -32 -5 -32 27 0 41 34 79 71 79 26 0 27 -2 22 -37z
m-233 -43 c0 -49 -52 -102 -82 -84 -15 10 -8 64 12 84 27 27 70 27 70 0z
m-5540 -25 c21 -11 30 -23 30 -39 0 -14 3 -31 6 -40 4 -12 0 -16 -15 -16 -32
0 -61 35 -61 75 0 40 1 40 40 20z m5300 -17 c0 -30 -22 -88 -33 -88 -7 0 -22
-3 -34 -6 -21 -6 -23 -3 -23 34 0 31 5 45 22 56 27 19 68 21 68 4z m-5051 -55
c22 -19 34 -83 16 -90 -21 -7 -44 23 -51 65 -7 46 1 52 35 25z m4814 3 c17
-43 -27 -96 -80 -96 -20 0 -23 5 -23 39 0 30 6 44 22 55 28 20 74 21 81 2z
m-255 -62 c5 -51 -33 -81 -95 -75 -16 1 -17 45 -2 72 12 23 45 39 74 36 14 -1
21 -11 23 -33z m-4309 0 c12 -15 21 -37 21 -50 0 -21 -5 -24 -40 -24 -34 0
-42 4 -50 26 -6 14 -10 36 -10 50 0 35 51 34 79 -2z m4049 -65 l-3 -44 -52 -3
-53 -3 0 34 c0 40 23 64 65 69 41 5 47 -2 43 -53z m-3805 37 c10 -8 20 -29 24
-48 6 -41 -7 -50 -60 -41 -30 5 -36 10 -39 37 -6 52 1 66 30 66 15 0 35 -7 45
-14z m3545 -57 c4 -44 -14 -61 -66 -63 l-37 -1 0 45 c0 38 3 45 25 51 14 4 36
7 50 6 21 -2 25 -8 28 -38z m-3293 25 c20 -8 45 -55 41 -80 -3 -21 -41 -30
-81 -20 -18 5 -24 14 -27 48 -3 24 -3 46 -1 51 5 9 45 9 68 1z m3033 -61 c3
-42 3 -42 -40 -53 -52 -15 -72 -5 -76 39 -5 47 13 63 67 59 l46 -3 3 -42z
m-2752 16 c17 -14 24 -61 12 -82 -7 -14 -16 -17 -36 -12 -50 12 -72 33 -72 69
0 18 3 36 7 40 9 9 74 -2 89 -15z m2467 -24 c-5 -71 -10 -76 -61 -73 -45 3
-47 4 -50 36 -5 51 22 72 88 68 21 -1 25 -5 23 -31z m-2190 -7 c21 -25 22 -61
2 -78 -16 -13 -68 -5 -83 13 -18 23 -25 79 -11 88 21 13 72 0 92 -23z m1917
-18 c0 -44 -18 -60 -69 -60 -30 0 -31 2 -31 43 0 24 3 47 7 50 3 4 26 7 50 7
l43 0 0 -40z m-1640 -25 l0 -55 -42 6 c-67 9 -68 10 -68 59 l0 45 55 0 55 0 0
-55z m1382 30 c8 -19 8 -31 0 -50 -10 -22 -18 -25 -61 -25 -44 0 -49 3 -55 25
-4 14 -4 36 0 50 6 22 11 25 55 25 43 0 51 -3 61 -25z m-1119 3 c25 -20 31
-62 12 -82 -21 -21 -73 -21 -97 1 -21 18 -25 79 -5 86 24 10 73 7 90 -5z m835
-41 l3 -48 -53 3 c-52 3 -53 4 -56 36 -5 55 2 63 55 60 l48 -3 3 -48z m-549
29 c7 -8 11 -30 9 -48 -3 -33 -4 -33 -53 -33 l-50 0 -3 48 -3 47 44 0 c27 0
49 -6 56 -14z m277 -11 c3 -14 3 -36 0 -50 -6 -22 -12 -25 -51 -25 -36 0 -45
4 -51 23 -21 60 -9 77 52 77 38 0 44 -3 50 -25z"/>
<path d="M5600 4155 c0 -8 5 -15 10 -15 6 0 10 7 10 15 0 8 -4 15 -10 15 -5 0
-10 -7 -10 -15z"/>
</g>
</svg>
