<?xml version="1.0" standalone="no"?>
<!DOCTYPE svg PUBLIC "-//W3C//DTD SVG 20010904//EN"
 "http://www.w3.org/TR/2001/REC-SVG-20010904/DTD/svg10.dtd">
<svg version="1.0" xmlns="http://www.w3.org/2000/svg"
 width="728.000000pt" height="508.000000pt" viewBox="0 0 728.000000 508.000000"
 preserveAspectRatio="xMidYMid meet">
<metadata>
Created by potrace 1.15, written by Peter Selinger 2001-2017
</metadata>
<g transform="translate(0.000000,508.000000) scale(0.100000,-0.100000)"
fill="#000000" stroke="none">
<path d="M5058 5070 c-54 -16 -130 -67 -207 -139 l-35 -32 590 -590 591 -591
48 51 c162 169 197 388 95 592 -27 54 -76 108 -324 356 -270 271 -296 294
-366 327 l-74 36 -146 -1 c-80 0 -157 -4 -172 -9z"/>
<path d="M4281 4814 c-36 -15 -403 -373 -398 -387 1 -5 133 -140 294 -300 160
-161 300 -308 312 -327 23 -38 28 -101 11 -147 -14 -36 -1924 -1948 -1966
-1968 -46 -22 -112 -19 -154 6 -19 12 -167 154 -329 315 -162 162 -297 294
-300 294 -4 0 -90 -85 -193 -189 -209 -211 -222 -232 -199 -321 11 -41 72
-105 739 -774 496 -496 740 -734 767 -747 49 -23 84 -24 133 -4 26 11 447 426
1440 1418 772 771 1421 1424 1443 1450 21 26 41 64 45 83 16 88 39 62 -744
848 -497 497 -740 734 -767 747 -48 22 -88 23 -134 3z m1128 -1448 c62 -63
111 -119 107 -124 -9 -14 -215 -216 -224 -220 -4 -1 -59 50 -122 113 l-115
115 115 115 c63 63 117 115 120 115 3 0 56 -51 119 -114z m-470 -471 c63 -63
111 -118 108 -123 -4 -4 -57 -57 -119 -119 l-111 -111 -114 114 c-62 62 -113
117 -113 121 0 8 222 233 230 233 3 0 56 -52 119 -115z m-476 -707 l-118 -118
-118 117 -117 118 117 117 118 117 118 -117 117 -117 -117 -117z m-466 -240
l113 -113 -117 -117 -118 -118 -117 117 -118 118 112 112 c62 62 117 113 123
113 5 0 60 -51 122 -112z m-471 -471 l114 -114 -116 -114 c-63 -63 -117 -116
-120 -118 -2 -2 -57 48 -121 113 l-117 117 115 114 c62 63 118 115 122 115 5
0 60 -51 123 -113z m-476 -472 l115 -115 -118 -118 -117 -117 -117 117 -118
118 115 115 c63 63 117 115 120 115 3 0 57 -52 120 -115z"/>
<path d="M2810 3364 l-825 -825 238 -236 238 -237 826 826 827 827 -236 235
c-130 130 -237 236 -239 236 -2 0 -375 -372 -829 -826z"/>
<path d="M1240 1319 c-163 -167 -202 -384 -105 -588 34 -71 55 -94 328 -367
214 -213 308 -300 352 -325 l60 -34 175 0 175 0 70 42 c39 23 91 63 117 90
l48 48 -589 589 -588 588 -43 -43z"/>
</g>
</svg>
