<?xml version="1.0" standalone="no"?>
<!DOCTYPE svg PUBLIC "-//W3C//DTD SVG 20010904//EN"
 "http://www.w3.org/TR/2001/REC-SVG-20010904/DTD/svg10.dtd">
<svg version="1.0" xmlns="http://www.w3.org/2000/svg"
 width="260.000000pt" height="200.000000pt" viewBox="0 0 260.000000 200.000000"
 preserveAspectRatio="xMidYMid meet">

<g transform="translate(0.000000,200.000000) scale(0.100000,-0.100000)"
fill="#000000" stroke="none">
<path d="M1425 1990 c-354 -55 -590 -176 -681 -351 -25 -46 -29 -66 -29 -134
0 -68 5 -88 28 -133 93 -177 332 -309 667 -368 117 -21 401 -24 515 -6 276 45
523 164 615 296 43 63 60 118 60 190 0 219 -275 418 -680 492 -100 19 -408 27
-495 14z m358 -117 c58 -18 107 -65 107 -102 0 -40 -23 -65 -82 -92 -43 -19
-70 -23 -143 -23 -79 0 -98 3 -149 28 -72 35 -100 81 -75 124 44 78 204 109
342 65z m-588 -174 c99 -18 175 -70 175 -120 0 -29 -48 -77 -98 -96 -70 -27
-200 -24 -270 7 -151 66 -110 181 78 213 44 8 55 7 115 -4z m1095 -36 c135
-44 149 -136 30 -199 -27 -15 -58 -19 -140 -19 -91 0 -111 3 -148 23 -61 33
-82 57 -82 95 0 47 50 90 125 108 55 13 162 9 215 -8z m-813 -321 c46 -24 83
-65 83 -93 0 -28 -46 -75 -91 -93 -191 -77 -457 46 -341 157 46 44 95 57 207
54 79 -2 109 -8 142 -25z m641 -19 c92 -45 105 -111 32 -161 -50 -33 -106 -45
-200 -40 -70 3 -94 9 -137 32 -155 85 -46 213 170 202 61 -3 91 -11 135 -33z"/>
<path d="M2410 1014 c-175 -89 -340 -134 -568 -155 -207 -20 -379 1 -784 97
-440 104 -630 109 -804 24 -95 -46 -167 -118 -215 -211 -24 -48 -29 -71 -29
-126 l0 -68 33 60 c62 115 124 186 195 224 22 12 22 11 22 -66 0 -43 -3 -121
-6 -173 l-7 -96 -49 -29 c-59 -35 -129 -109 -169 -180 -22 -38 -29 -63 -29
-105 l0 -55 38 65 c73 125 188 212 320 239 68 14 262 14 355 0 40 -6 151 -29
247 -51 508 -116 481 -112 735 -112 217 0 237 1 349 28 149 35 266 76 376 131
131 67 118 30 126 348 4 160 3 276 -2 276 -5 -1 -65 -30 -134 -65z m-1700
-109 c6 -4 10 -77 10 -171 l0 -165 -57 7 c-32 5 -110 8 -173 7 l-116 -1 4 152
c2 83 5 156 7 163 2 6 16 14 32 16 36 7 281 -1 293 -8z m1725 -303 c-4 -17
-24 -31 -68 -51 -75 -34 -264 -97 -271 -91 -2 3 -1 74 2 159 l7 153 85 25 c47
13 121 39 165 56 l80 32 3 -130 c1 -71 0 -140 -3 -153z m-1322 218 l228 -55
-3 -157 c-2 -86 -6 -159 -9 -162 -3 -3 -75 10 -160 30 -85 19 -188 42 -229 50
-41 9 -79 20 -84 24 -13 13 4 332 18 328 6 -2 114 -29 239 -58z m559 -92 c73
0 168 3 211 7 l77 7 0 -155 c0 -86 -4 -158 -9 -161 -20 -13 -311 -27 -391 -19
-85 8 -85 8 -88 38 -2 17 -1 90 3 163 l7 133 29 -6 c16 -4 89 -7 161 -7z"/>
</g>
</svg>
